<svg width="310" height="265" fill="none" xmlns="http://www.w3.org/2000/svg"><path opacity=".8" fill-rule="evenodd" clip-rule="evenodd" d="M-48.966 0h-.092l-.086.033-44.667 17.079-.078.03-.063.052-51.674 42.915-.374.311.3.383L81.032 350.007v1.834l.72-.917.718.917v-1.834L309.203 60.803l.3-.383-.374-.31-51.674-42.916-.063-.053-.078-.03L212.647.034 212.561 0H-48.966zM81.533 1h-122.8L81.751 17.046 204.77 1H81.532zm.937 97.45V18.655l77.235 41.818L82.47 98.45zm0 248.833V99.968h118.694L82.47 347.283zM81.032 18.655L3.799 60.473 81.032 98.45V18.655zm0 81.313H-37.66L81.033 347.283V99.968zm-171.957-82.89l42.02-16.066L74.27 17.08H-90.925zm-.357 1H79.997l-77.31 41.86-93.969-41.86zm-52.64 41.916H.357l-93.91-41.832-50.369 41.832zM79.538 346.48l-223.37-284.915 105.014 38.304L79.537 346.48zM-37.2 98.969H79.82L2.8 61.095l-40 37.872zM1.453 60.993l-40.028 37.899-103.902-37.899H1.453zM254.428 17.08l-42.02-16.067L89.232 17.08h165.196zm.356 1H83.506l77.31 41.858 93.968-41.858zm52.641 41.915H163.146l93.909-41.832 50.37 41.832zM83.965 346.48l223.37-284.915-105.014 38.304L83.965 346.48zM200.703 98.97H83.683l77.02-37.873 40 37.872zM162.05 60.993l40.028 37.899L305.98 60.994H162.05z" fill="#EEE"/></svg>