<svg width="20" height="20" fill="none" xmlns="http://www.w3.org/2000/svg"><path fill-rule="evenodd" clip-rule="evenodd" d="M11.004 1.5a1 1 0 10-2 0v2.05c-.96.096-1.876.327-2.73.658l-.83-1.158A1 1 0 103.82 4.215l.639.892c-.531.325-1.024.686-1.473 1.07C1.248 7.666 0 9.668 0 11.5c0 1.832 1.248 3.834 2.985 5.323C4.762 18.345 7.235 19.5 10 19.5c2.764 0 5.238-1.154 7.015-2.676C18.752 15.335 20 13.333 20 11.5c0-1.833-1.248-3.836-2.985-5.324-.33-.283-.684-.552-1.06-.804l.67-.934A1 1 0 1015 3.273L14.192 4.4a10.556 10.556 0 00-3.188-.85V1.5zM10 7.5a4 4 0 100 8 4 4 0 000-8z" fill="#C9C9C9"/></svg>