<svg width="18" height="16" fill="none" xmlns="http://www.w3.org/2000/svg"><path d="M9 15.5c-.538-.477-1.145-.973-1.788-1.5h-.008c-2.262-1.85-4.827-3.943-5.959-6.452A6.185 6.185 0 01.667 5 4.492 4.492 0 015.25.5a5.132 5.132 0 012.773.82c.364.235.692.52.977.847a4.82 4.82 0 01.977-.848A5.127 5.127 0 0112.75.5 4.492 4.492 0 0117.333 5a6.186 6.186 0 01-.578 2.552c-1.132 2.509-3.696 4.601-5.958 6.448l-.009.007c-.643.524-1.25 1.02-1.787 1.5L9 15.5zM5.25 2.167a2.946 2.946 0 00-2.083.826A2.785 2.785 0 002.333 5c.01.642.155 1.275.427 1.857A10.262 10.262 0 004.89 9.75c.827.833 1.777 1.64 2.598 2.318l.691.566.146.12.675.554.01-.01.006-.004h.005l.007-.006h.009l.015-.012.034-.028.006-.005.009-.006h.005l.007-.007.554-.454.145-.12c.234-.19.466-.38.693-.567.822-.678 1.772-1.484 2.598-2.322a10.25 10.25 0 002.131-2.892A4.531 4.531 0 0015.667 5a2.786 2.786 0 00-.834-2 2.946 2.946 0 00-2.083-.833 3.323 3.323 0 00-2.492 1.092L9 4.71 7.742 3.26A3.323 3.323 0 005.25 2.167z" fill="#303030"/></svg>