<svg width="18" height="18" fill="none" xmlns="http://www.w3.org/2000/svg"><circle cx="9" cy="9" r="9" fill="#F0F0F0"/><path d="M8.25 10.49h1.219v-.08c.017-.981.298-1.42 1.023-1.867.762-.46 1.231-1.108 1.231-2.067 0-1.385-1.048-2.323-2.612-2.323-1.436 0-2.587.84-2.642 2.374h1.295c.051-.903.695-1.3 1.347-1.3.724 0 1.312.482 1.312 1.236 0 .635-.396 1.082-.903 1.398-.793.486-1.261.967-1.27 2.548v.081zm.643 2.591c.465 0 .853-.38.853-.852a.857.857 0 00-.853-.848.854.854 0 00-.852.848c0 .473.384.852.852.852z" fill="#303030"/></svg>